<svg width="37" height="37" viewBox="0 0 37 37" fill="none" xmlns="http://www.w3.org/2000/svg">
<path d="M30.5489 19.5589C31.2626 18.8453 31.2626 17.6864 30.5489 16.9728L21.4146 7.83844C20.701 7.12482 19.5421 7.12482 18.8284 7.83844C18.1148 8.55206 18.1148 9.71098 18.8284 10.4246L26.6726 18.2687L18.8342 26.1128C18.1205 26.8264 18.1205 27.9854 18.8342 28.699C19.5478 29.4126 20.7067 29.4126 21.4203 28.699L30.5546 19.5646L30.5489 19.5589ZM10.4534 28.6933L19.5877 19.5589C20.3014 18.8453 20.3014 17.6864 19.5877 16.9728L10.4534 7.83844C9.73978 7.12482 8.58087 7.12482 7.86725 7.83844C7.15363 8.55206 7.15363 9.71098 7.86725 10.4246L15.7114 18.2687L7.87295 26.1128C7.15933 26.8264 7.15933 27.9854 7.87295 28.699C8.58657 29.4126 9.74549 29.4126 10.4591 28.699L10.4534 28.6933Z" fill="#5D5D5D"/>
</svg>
