<svg width="37" height="37" viewBox="0 0 37 37" fill="none" xmlns="http://www.w3.org/2000/svg">
<path d="M5.48047 9.13436C5.48047 8.12388 6.29685 7.3075 7.30734 7.3075H29.2297C30.2402 7.3075 31.0566 8.12388 31.0566 9.13436C31.0566 10.1448 30.2402 10.9612 29.2297 10.9612H7.30734C6.29685 10.9612 5.48047 10.1448 5.48047 9.13436ZM5.48047 18.2687C5.48047 17.2582 6.29685 16.4418 7.30734 16.4418H29.2297C30.2402 16.4418 31.0566 17.2582 31.0566 18.2687C31.0566 19.2792 30.2402 20.0956 29.2297 20.0956H7.30734C6.29685 20.0956 5.48047 19.2792 5.48047 18.2687ZM31.0566 27.403C31.0566 28.4135 30.2402 29.2299 29.2297 29.2299H7.30734C6.29685 29.2299 5.48047 28.4135 5.48047 27.403C5.48047 26.3925 6.29685 25.5762 7.30734 25.5762H29.2297C30.2402 25.5762 31.0566 26.3925 31.0566 27.403Z" fill="#777777"/>
</svg>
