<svg width="37" height="37" viewBox="0 0 37 37" fill="none" xmlns="http://www.w3.org/2000/svg">
<path d="M27.4031 5.48059C29.4184 5.48059 31.0568 7.11906 31.0568 9.13432V27.403C31.0568 29.4182 29.4184 31.0567 27.4031 31.0567H9.13445C7.11918 31.0567 5.48071 29.4182 5.48071 27.403V9.13432C5.48071 7.11906 7.11918 5.48059 9.13445 5.48059H27.4031ZM9.13445 8.22089C8.63206 8.22089 8.22101 8.63194 8.22101 9.13432V27.403C8.22101 27.9054 8.63206 28.3164 9.13445 28.3164H27.4031C27.9055 28.3164 28.3165 27.9054 28.3165 27.403V9.13432C28.3165 8.63194 27.9055 8.22089 27.4031 8.22089H9.13445ZM22.305 13.3532C22.7503 12.7424 23.6067 12.6054 24.2175 13.0507C24.8284 13.496 24.9654 14.3523 24.5201 14.9632L17.5494 24.5542C17.3154 24.8796 16.95 25.0851 16.5504 25.1137C16.1508 25.1422 15.7568 24.9995 15.4771 24.7198L12.2858 21.5285C11.7491 20.9918 11.7491 20.1241 12.2858 19.5931C12.8224 19.0622 13.6902 19.0565 14.2211 19.5931L16.2764 21.6484L22.305 13.359V13.3532Z" fill="#5D5D5D"/>
</svg>
