<svg width="37" height="37" viewBox="0 0 37 37" fill="none" xmlns="http://www.w3.org/2000/svg">
<path d="M18.2687 32.8836C26.3412 32.8836 32.8837 26.3411 32.8837 18.2687C32.8837 10.1962 26.3412 3.65375 18.2687 3.65375C10.1963 3.65375 3.65381 10.1962 3.65381 18.2687C3.65381 26.3411 10.1963 32.8836 18.2687 32.8836ZM16.4419 12.7881C16.4419 11.7776 17.2583 10.9612 18.2687 10.9612C19.2792 10.9612 20.0956 11.7776 20.0956 12.7881C20.0956 13.7986 19.2792 14.6149 18.2687 14.6149C17.2583 14.6149 16.4419 13.7986 16.4419 12.7881ZM15.9852 16.4418H18.7255C19.4847 16.4418 20.0956 17.0527 20.0956 17.812V22.8358H20.5523C21.3116 22.8358 21.9225 23.4467 21.9225 24.206C21.9225 24.9653 21.3116 25.5761 20.5523 25.5761H15.9852C15.2259 25.5761 14.615 24.9653 14.615 24.206C14.615 23.4467 15.2259 22.8358 15.9852 22.8358H17.3553V19.1821H15.9852C15.2259 19.1821 14.615 18.5713 14.615 17.812C14.615 17.0527 15.2259 16.4418 15.9852 16.4418Z" fill="#777777"/>
</svg>
