<svg width="37" height="37" viewBox="0 0 37 37" fill="none" xmlns="http://www.w3.org/2000/svg">
<g clip-path="url(#clip0_300_185)">
<path d="M32.8836 10.9612C32.8836 8.94597 31.2451 7.3075 29.2299 7.3075H11.7205C10.75 7.3075 9.81941 7.69 9.13433 8.37507L0.536642 16.9785C0.194105 17.321 0 17.7834 0 18.2687C0 18.754 0.194105 19.2164 0.536642 19.5589L9.13433 28.1623C9.81941 28.8474 10.75 29.2299 11.7205 29.2299H29.2299C31.2451 29.2299 32.8836 27.5914 32.8836 25.5762V10.9612ZM16.2192 14.3923C16.7558 13.8557 17.6236 13.8557 18.1545 14.3923L20.0898 16.3276L22.0252 14.3923C22.5618 13.8557 23.4296 13.8557 23.9605 14.3923C24.4914 14.929 24.4971 15.7967 23.9605 16.3276L22.0252 18.263L23.9605 20.1983C24.4971 20.735 24.4971 21.6027 23.9605 22.1337C23.4239 22.6646 22.5561 22.6703 22.0252 22.1337L20.0898 20.1983L18.1545 22.1337C17.6178 22.6703 16.7501 22.6703 16.2192 22.1337C15.6882 21.597 15.6825 20.7293 16.2192 20.1983L18.1545 18.263L16.2192 16.3276C15.6825 15.791 15.6825 14.9232 16.2192 14.3923Z" fill="#5D5D5D"/>
</g>
<defs>
<clipPath id="clip0_300_185">
<rect width="36.5373" height="36.5373" fill="white"/>
</clipPath>
</defs>
</svg>
