<svg width="37" height="37" viewBox="0 0 37 37" fill="none" xmlns="http://www.w3.org/2000/svg">
<path d="M32.4838 19.2392C33.0204 18.7025 33.0204 17.8348 32.4838 17.3038L24.2629 9.07723C23.869 8.68332 23.281 8.56914 22.7672 8.78037C22.2533 8.9916 21.9222 9.49399 21.9222 10.0478V14.6149H15.5282C14.0153 14.6149 12.7879 15.8423 12.7879 17.3552V19.1821C12.7879 20.695 14.0153 21.9224 15.5282 21.9224H21.9222V26.4896C21.9222 27.0433 22.2533 27.5457 22.7672 27.7569C23.281 27.9682 23.869 27.854 24.2629 27.4601L32.4838 19.2392ZM12.7879 9.13432C13.7984 9.13432 14.6148 8.31794 14.6148 7.30746C14.6148 6.29697 13.7984 5.48059 12.7879 5.48059H9.13416C6.10842 5.48059 3.65356 7.93544 3.65356 10.9612V25.5761C3.65356 28.6019 6.10842 31.0567 9.13416 31.0567H12.7879C13.7984 31.0567 14.6148 30.2403 14.6148 29.2299C14.6148 28.2194 13.7984 27.403 12.7879 27.403H9.13416C8.12368 27.403 7.3073 26.5866 7.3073 25.5761V10.9612C7.3073 9.9507 8.12368 9.13432 9.13416 9.13432H12.7879Z" fill="#777777"/>
</svg>
