<svg width="37" height="37" viewBox="0 0 37 37" fill="none" xmlns="http://www.w3.org/2000/svg">
<path d="M5.93729 6.39404C5.178 6.39404 4.56714 7.0049 4.56714 7.76419V10.5045C4.56714 11.2638 5.178 11.8746 5.93729 11.8746H8.67759C9.43688 11.8746 10.0477 11.2638 10.0477 10.5045V7.76419C10.0477 7.0049 9.43688 6.39404 8.67759 6.39404H5.93729ZM14.6149 7.30748C13.6044 7.30748 12.788 8.12386 12.788 9.13434C12.788 10.1448 13.6044 10.9612 14.6149 10.9612H31.0567C32.0672 10.9612 32.8836 10.1448 32.8836 9.13434C32.8836 8.12386 32.0672 7.30748 31.0567 7.30748H14.6149ZM14.6149 16.4418C13.6044 16.4418 12.788 17.2582 12.788 18.2687C12.788 19.2792 13.6044 20.0955 14.6149 20.0955H31.0567C32.0672 20.0955 32.8836 19.2792 32.8836 18.2687C32.8836 17.2582 32.0672 16.4418 31.0567 16.4418H14.6149ZM14.6149 25.5761C13.6044 25.5761 12.788 26.3925 12.788 27.403C12.788 28.4135 13.6044 29.2299 14.6149 29.2299H31.0567C32.0672 29.2299 32.8836 28.4135 32.8836 27.403C32.8836 26.3925 32.0672 25.5761 31.0567 25.5761H14.6149ZM4.56714 16.8985V19.6388C4.56714 20.3981 5.178 21.009 5.93729 21.009H8.67759C9.43688 21.009 10.0477 20.3981 10.0477 19.6388V16.8985C10.0477 16.1392 9.43688 15.5284 8.67759 15.5284H5.93729C5.178 15.5284 4.56714 16.1392 4.56714 16.8985ZM5.93729 24.6627C5.178 24.6627 4.56714 25.2736 4.56714 26.0329V28.7732C4.56714 29.5324 5.178 30.1433 5.93729 30.1433H8.67759C9.43688 30.1433 10.0477 29.5324 10.0477 28.7732V26.0329C10.0477 25.2736 9.43688 24.6627 8.67759 24.6627H5.93729Z" fill="#5D5D5D"/>
</svg>
