<svg width="37" height="37" viewBox="0 0 37 37" fill="none" xmlns="http://www.w3.org/2000/svg">
<path d="M30.577 4.89259C29.3267 3.64233 27.3058 3.64233 26.0555 4.89259L24.6625 6.28558L30.2516 11.8746L31.6446 10.4817C32.8948 9.2314 32.8948 7.21043 31.6446 5.96017L30.577 4.89259ZM13.4958 17.4523C13.1476 17.8005 12.8792 18.2287 12.7251 18.7026L11.0352 23.7721C10.8697 24.2631 11.001 24.8054 11.3664 25.1765C11.7317 25.5476 12.2741 25.6732 12.7708 25.5076L17.8403 23.8178C18.3085 23.6636 18.7366 23.3953 19.0906 23.0471L28.3163 13.81L22.7272 8.22091L13.4958 17.4523ZM9.13416 7.30748C6.10842 7.30748 3.65356 9.76233 3.65356 12.7881V27.403C3.65356 30.4288 6.10842 32.8836 9.13416 32.8836H23.7491C26.7748 32.8836 29.2297 30.4288 29.2297 27.403V21.9224C29.2297 20.9119 28.4133 20.0955 27.4028 20.0955C26.3923 20.0955 25.576 20.9119 25.576 21.9224V27.403C25.576 28.4135 24.7596 29.2299 23.7491 29.2299H9.13416C8.12368 29.2299 7.3073 28.4135 7.3073 27.403V12.7881C7.3073 11.7776 8.12368 10.9612 9.13416 10.9612H14.6148C15.6252 10.9612 16.4416 10.1448 16.4416 9.13435C16.4416 8.12386 15.6252 7.30748 14.6148 7.30748H9.13416Z" fill="#777777"/>
</svg>
