<svg width="37" height="37" viewBox="0 0 37 37" fill="none" xmlns="http://www.w3.org/2000/svg">
<path d="M20.0956 7.30746C20.0956 6.29697 19.2793 5.48059 18.2688 5.48059C17.2583 5.48059 16.4419 6.29697 16.4419 7.30746V16.4418H7.30758C6.29709 16.4418 5.48071 17.2582 5.48071 18.2687C5.48071 19.2791 6.29709 20.0955 7.30758 20.0955H16.4419V29.2299C16.4419 30.2403 17.2583 31.0567 18.2688 31.0567C19.2793 31.0567 20.0956 30.2403 20.0956 29.2299V20.0955H29.23C30.2405 20.0955 31.0568 19.2791 31.0568 18.2687C31.0568 17.2582 30.2405 16.4418 29.23 16.4418H20.0956V7.30746Z" fill="#777777"/>
</svg>
