<svg width="36" height="36" viewBox="0 0 36 36" fill="none" xmlns="http://www.w3.org/2000/svg">
<path d="M25.4999 15.7485C25.4999 17.8999 24.8015 19.8872 23.625 21.4996L29.5589 27.4382C30.1448 28.024 30.1448 28.9755 29.5589 29.5614C28.973 30.1473 28.0215 30.1473 27.4357 29.5614L21.5018 23.6228C19.8894 24.7993 17.9021 25.4977 15.7507 25.4977C10.3652 25.4977 6.00146 21.134 6.00146 15.7485C6.00146 10.363 10.3652 5.99927 15.7507 5.99927C21.1362 5.99927 25.4999 10.363 25.4999 15.7485ZM15.7507 22.4979C19.4769 22.4979 22.5001 19.4747 22.5001 15.7485C22.5001 12.0222 19.4769 8.99902 15.7507 8.99902C12.0244 8.99902 9.00122 12.0222 9.00122 15.7485C9.00122 19.4747 12.0244 22.4979 15.7507 22.4979Z" fill="#777777"/>
</svg>
