<svg width="37" height="37" viewBox="0 0 37 37" fill="none" xmlns="http://www.w3.org/2000/svg">
<path d="M5.48067 7.30744C4.47019 7.30744 3.65381 8.12382 3.65381 9.13431C3.65381 10.1448 4.47019 10.9612 5.48067 10.9612H10.4303C11.1325 12.5768 12.7425 13.7015 14.615 13.7015C16.4875 13.7015 18.0975 12.5768 18.7997 10.9612H31.0568C32.0673 10.9612 32.8837 10.1448 32.8837 9.13431C32.8837 8.12382 32.0673 7.30744 31.0568 7.30744H18.7997C18.0975 5.6918 16.4875 4.56714 14.615 4.56714C12.7425 4.56714 11.1325 5.6918 10.4303 7.30744H5.48067ZM5.48067 16.4418C4.47019 16.4418 3.65381 17.2582 3.65381 18.2686C3.65381 19.2791 4.47019 20.0955 5.48067 20.0955H19.5647C20.2669 21.7111 21.8768 22.8358 23.7493 22.8358C25.6219 22.8358 27.2318 21.7111 27.934 20.0955H31.0568C32.0673 20.0955 32.8837 19.2791 32.8837 18.2686C32.8837 17.2582 32.0673 16.4418 31.0568 16.4418H27.934C27.2318 14.8261 25.6219 13.7015 23.7493 13.7015C21.8768 13.7015 20.2669 14.8261 19.5647 16.4418H5.48067ZM5.48067 25.5761C4.47019 25.5761 3.65381 26.3925 3.65381 27.403C3.65381 28.4135 4.47019 29.2298 5.48067 29.2298H8.60347C9.30568 30.8455 10.9156 31.9701 12.7881 31.9701C14.6607 31.9701 16.2706 30.8455 16.9728 29.2298H31.0568C32.0673 29.2298 32.8837 28.4135 32.8837 27.403C32.8837 26.3925 32.0673 25.5761 31.0568 25.5761H16.9728C16.2706 23.9605 14.6607 22.8358 12.7881 22.8358C10.9156 22.8358 9.30568 23.9605 8.60347 25.5761H5.48067Z" fill="#5D5D5D"/>
</svg>
