<svg width="37" height="37" viewBox="0 0 37 37" fill="none" xmlns="http://www.w3.org/2000/svg">
<path d="M5.50952 9.13502V17.6705C5.50952 18.6411 5.89205 19.5718 6.57717 20.2569L17.5392 31.2189C18.9665 32.6462 21.2788 32.6462 22.7062 31.2189L31.2417 22.6834C32.669 21.256 32.669 18.9437 31.2417 17.5164L20.2797 6.55438C19.5946 5.86355 18.6696 5.48102 17.699 5.48102H9.16352C7.14811 5.48102 5.50952 7.11961 5.50952 9.13502ZM11.904 10.0485C12.9146 10.0485 13.731 10.865 13.731 11.8755C13.731 12.8861 12.9146 13.7025 11.904 13.7025C10.8935 13.7025 10.077 12.8861 10.077 11.8755C10.077 10.865 10.8935 10.0485 11.904 10.0485Z" fill="#5D5D5D"/>
</svg>
