<svg width="37" height="37" viewBox="0 0 37 37" fill="none" xmlns="http://www.w3.org/2000/svg">
<path d="M13.2849 3.99056L12.7882 5.4806H7.30758C6.29709 5.4806 5.48071 6.29698 5.48071 7.30746C5.48071 8.31795 6.29709 9.13433 7.30758 9.13433H29.23C30.2405 9.13433 31.0568 8.31795 31.0568 7.30746C31.0568 6.29698 30.2405 5.4806 29.23 5.4806H23.7494L23.2527 3.99056C23.0015 3.24268 22.305 2.7403 21.5172 2.7403H15.0204C14.2325 2.7403 13.5361 3.24268 13.2849 3.99056ZM29.23 11.8746H7.30758L8.51217 30.3203C8.60351 31.7646 9.80239 32.8836 11.2468 32.8836H25.2908C26.7352 32.8836 27.934 31.7646 28.0254 30.3203L29.23 11.8746Z" fill="#5D5D5D"/>
</svg>
