<svg width="37" height="37" viewBox="0 0 37 37" fill="none" xmlns="http://www.w3.org/2000/svg">
<path d="M27.405 5.48102C29.4204 5.48102 31.059 7.11961 31.059 9.13502V27.405C31.059 29.4204 29.4204 31.059 27.405 31.059H9.13496C7.11955 31.059 5.48096 29.4204 5.48096 27.405V9.13502C5.48096 7.11961 7.11955 5.48102 9.13496 5.48102H27.405ZM9.13496 8.22152C8.63253 8.22152 8.22146 8.63259 8.22146 9.13502V27.405C8.22146 27.9074 8.63253 28.3185 9.13496 28.3185H27.405C27.9074 28.3185 28.3185 27.9074 28.3185 27.405V9.13502C28.3185 8.63259 27.9074 8.22152 27.405 8.22152H9.13496Z" fill="#777777"/>
</svg>
