<svg width="37" height="37" viewBox="0 0 37 37" fill="none" xmlns="http://www.w3.org/2000/svg">
<path d="M12.7882 3.65369C13.7987 3.65369 14.615 4.47007 14.615 5.48055V7.30742H21.9225V5.48055C21.9225 4.47007 22.7389 3.65369 23.7494 3.65369C24.7599 3.65369 25.5762 4.47007 25.5762 5.48055V7.30742H27.4031C29.4184 7.30742 31.0568 8.94589 31.0568 10.9612V27.403C31.0568 29.4182 29.4184 31.0567 27.4031 31.0567H9.13445C7.11918 31.0567 5.48071 29.4182 5.48071 27.403V10.9612C5.48071 8.94589 7.11918 7.30742 9.13445 7.30742H10.9613V5.48055C10.9613 4.47007 11.7777 3.65369 12.7882 3.65369ZM22.1452 16.2191C21.6085 15.6825 20.7408 15.6825 20.2098 16.2191L18.2745 18.1544L16.3392 16.2191C15.8025 15.6825 14.9347 15.6825 14.4038 16.2191C13.8729 16.7557 13.8672 17.6235 14.4038 18.1544L16.3392 20.0898L14.4038 22.0251C13.8672 22.5618 13.8672 23.4295 14.4038 23.9605C14.9405 24.4914 15.8082 24.4971 16.3392 23.9605L18.2745 22.0251L20.2098 23.9605C20.7465 24.4971 21.6142 24.4971 22.1452 23.9605C22.6761 23.4238 22.6818 22.556 22.1452 22.0251L20.2098 20.0898L22.1452 18.1544C22.6818 17.6178 22.6818 16.75 22.1452 16.2191Z" fill="#777777"/>
</svg>
