<svg width="49" height="48" viewBox="0 0 49 48" fill="none" xmlns="http://www.w3.org/2000/svg">
<rect x="2.09815e-06" y="48" width="48" height="49" rx="16" transform="rotate(-90 2.09815e-06 48)" fill="white"/>
<path d="M16.5 42.78C13.1863 42.78 10.5 40.0937 10.5 36.78L32.5 36.78C35.8137 36.78 38.5 39.4663 38.5 42.78L16.5 42.78Z" fill="#FF7117"/>
<path d="M10.3001 19.5C10.3001 17.42 10.6467 15.5134 11.3401 13.78C12.0334 12.02 13.02 10.5134 14.3001 9.26003C15.5534 7.98003 17.0467 6.99336 18.7801 6.30003C20.5134 5.58003 22.4201 5.22003 24.5001 5.22003C26.5801 5.22003 28.4867 5.58003 30.2201 6.30003C31.9534 6.99336 33.4601 7.98003 34.7401 9.26003C35.9934 10.5134 36.9667 12.02 37.6601 13.78C38.3534 15.5134 38.7001 17.42 38.7001 19.5C38.7001 21.58 38.3534 23.5 37.6601 25.26C36.9667 26.9934 35.9934 28.5 34.7401 29.78C33.4601 31.0334 31.9534 32.02 30.2201 32.74C28.4867 33.4334 26.5801 33.78 24.5001 33.78C22.4201 33.78 20.5134 33.4334 18.7801 32.74C17.0467 32.02 15.5534 31.0334 14.3001 29.78C13.0201 28.5 12.0334 26.9934 11.3401 25.26C10.6467 23.5 10.3001 21.58 10.3001 19.5ZM32.7001 19.5C32.7001 18.2734 32.5134 17.1534 32.1401 16.14C31.7401 15.1267 31.1934 14.26 30.5001 13.54C29.7801 12.7934 28.9134 12.22 27.9001 11.82C26.8867 11.42 25.7534 11.22 24.5001 11.22C23.2467 11.22 22.1134 11.42 21.1001 11.82C20.0867 12.22 19.2334 12.78 18.5401 13.5C17.8201 14.22 17.2734 15.0867 16.9001 16.1C16.5001 17.1134 16.3001 18.2467 16.3001 19.5C16.3001 20.7267 16.5001 21.86 16.9001 22.9C17.2734 23.9134 17.8201 24.78 18.5401 25.5C19.2334 26.22 20.0867 26.78 21.1001 27.18C22.1134 27.58 23.2467 27.78 24.5001 27.78C25.7534 27.78 26.8867 27.58 27.9001 27.18C28.9134 26.78 29.7801 26.22 30.5001 25.5C31.1934 24.7534 31.7401 23.8734 32.1401 22.86C32.5134 21.8467 32.7001 20.7267 32.7001 19.5Z" fill="#FF7117"/>
</svg>
